<svg xmlns="http://www.w3.org/2000/svg" width="413.062" height="310.963" viewBox="0 0 413.062 310.963">
  <g id="_2166678_data_document_file_files_folder_icon" data-name="2166678_data_document_file_files_folder_icon" transform="translate(-49.47 -100.519)">
    <path id="Trazado_741" data-name="Trazado 741" d="M462.44,149.72c-.011-.04-.011-.08-.021-.12a6.448,6.448,0,0,0-.25-.811,1.055,1.055,0,0,0-.07-.149,4.88,4.88,0,0,0-.39-.721c-.03-.05-.061-.09-.091-.14a5.281,5.281,0,0,0-.529-.64.5.5,0,0,0-.08-.07,2.6,2.6,0,0,0-.3-.28l-12.75-10.529-41.921-34.6c-.06-.05-.14-.09-.21-.14-.109-.08-.22-.16-.33-.23a2.9,2.9,0,0,0-.46-.25c-.119-.06-.239-.12-.359-.17a4.945,4.945,0,0,0-.55-.17l-.33-.09a5.878,5.878,0,0,0-.939-.09H261.04a5,5,0,0,0-5,5v61H240.98l-30.069-41.53c-1.08-1.479-2.19-3.02-4.74-3.02H104.13a20.02,20.02,0,0,0-20,20v10.279H69.47a20.021,20.021,0,0,0-20,20V392.8a18.7,18.7,0,0,0,18.68,18.682H375.41a3.407,3.407,0,0,0,.46-.051c.439.029.891.051,1.341.051a22.339,22.339,0,0,0,22.31-22.312V365.96h58.011a5,5,0,0,0,5-5V150.65A4.887,4.887,0,0,0,462.44,149.72Zm-54.58-33.59,32.989,27.24,2.771,2.28H407.86ZM94.13,141.97a10.009,10.009,0,0,1,10-10h99.49c1.58,2.18,4.26,5.89,7.3,10.079l23.45,32.4a5.9,5.9,0,0,0,.47.54l.149.15a5,5,0,0,0,.561.46.848.848,0,0,0,.11.08,4.877,4.877,0,0,0,.7.38c.08.04.15.069.23.1a3.766,3.766,0,0,0,.75.23,1.564,1.564,0,0,0,.22.04,4.158,4.158,0,0,0,.79.08c.021,0,.05.01.07.01h17.62v19.96h-49.73l-30.06-41.23a14.492,14.492,0,0,0-1.24-1.529,3.287,3.287,0,0,0-.28-.261,1.736,1.736,0,0,0-.22-.2c-.13-.1-.25-.19-.39-.28a1.931,1.931,0,0,0-.311-.18,1.391,1.391,0,0,0-.21-.11,4.178,4.178,0,0,0-.53-.21h-.01a5.115,5.115,0,0,0-.75-.17c-.13-.021-.27-.04-.41-.05s-.29-.011-.43-.011H94.13ZM69.47,401.481a10.01,10.01,0,0,1-10-10V172.25a10,10,0,0,1,10-10h99.5c1.59,2.17,4.29,5.88,7.34,10.061l23.41,32.109a1.894,1.894,0,0,0,.2.21,6.19,6.19,0,0,0,.41.471c.1.09.21.17.31.25a5.142,5.142,0,0,0,.46.34c.11.07.23.13.34.189.181.091.351.181.53.25a2.356,2.356,0,0,0,.36.11,5.412,5.412,0,0,0,.58.15c.13.02.27.029.4.04.15.01.3.05.45.05h142.46c4.95,0,8.681,4.12,8.681,9.59V390.06c0,.131.029.239.04.37a22.146,22.146,0,0,0,3.68,11.051Zm307.74,0a12.332,12.332,0,0,1-12.311-12.29V379.17a4.829,4.829,0,0,0,.149-1.149,4.935,4.935,0,0,0-.149-1.149v-10.91h24.619v23.209h0A12.32,12.32,0,0,1,377.21,401.481ZM364.9,355.96V216.07c0-.31-.011-.61-.021-.91-.011-.22-.021-.439-.04-.66-.011-.2-.03-.41-.051-.609a20.838,20.838,0,0,0-.47-2.771c-.07-.32-.16-.63-.25-.939s-.181-.61-.29-.91c-.069-.21-.141-.41-.221-.61-.09-.229-.18-.46-.271-.68s-.189-.44-.29-.66a18.4,18.4,0,0,0-1.029-1.91c-.12-.2-.25-.4-.38-.6-.109-.181-.229-.36-.351-.54a18.645,18.645,0,0,0-3.49-3.71c-.18-.16-.369-.3-.56-.44s-.381-.28-.58-.42a.239.239,0,0,0-.091-.06,3.159,3.159,0,0,0-.4-.261,15.631,15.631,0,0,0-1.609-.939.678.678,0,0,1-.12-.061c-.271-.13-.55-.26-.83-.38a17.652,17.652,0,0,0-5.18-1.39c-.2-.03-.391-.05-.591-.061a.018.018,0,0,0-.029,0,5.436,5.436,0,0,0-.561-.039c-.33-.021-.649-.03-.979-.03h-80.18V110.52H397.856v40.13a5,5,0,0,0,5,5h49.67V355.96Z"/>
    <path id="Trazado_742" data-name="Trazado 742" d="M328.5,298.98H244.73a5,5,0,1,0,0,10H328.5a5,5,0,0,0,0-10Z"/>
    <path id="Trazado_743" data-name="Trazado 743" d="M328.5,324.97H244.73a5,5,0,1,0,0,10H328.5a5,5,0,0,0,0-10Z"/>
    <path id="Trazado_744" data-name="Trazado 744" d="M244.73,282.99h32.1a5,5,0,0,0,0-10h-32.1a5,5,0,1,0,0,10Z"/>
    <path id="Trazado_745" data-name="Trazado 745" d="M209.44,252.176h-114a5,5,0,0,0-5,5v84a5,5,0,0,0,5,5h114a4.994,4.994,0,0,0,5-5v-84A5,5,0,0,0,209.44,252.176Zm-5,84h-104v-74h104Z"/>
  </g>
</svg>
