<svg xmlns="http://www.w3.org/2000/svg" width="83.238" height="38.423" viewBox="0 0 83.238 38.423">
  <g id="_2166678_data_document_file_files_folder_icon" data-name="2166678_data_document_file_files_folder_icon" transform="translate(-108.821 -281.769)">
    <path id="Trazado_751" data-name="Trazado 751" d="M113.085,320.192c2.58,0,4.318-1.908,4.318-4.879,0-3.031-1.907-4.882-4.264-4.882a4.65,4.65,0,0,0-4.318,4.882C108.822,318.285,110.785,320.192,113.085,320.192Z"/>
    <path id="Trazado_752" data-name="Trazado 752" d="M129.8,319.744V305.665h1.459a13.245,13.245,0,0,0,9.2-3.59,12.727,12.727,0,0,0,3.2-9.088c0-3.2-1.01-6.338-3.254-8.3-2.468-2.3-5.89-2.917-10.265-2.917a38.509,38.509,0,0,0-7.685.729v37.246Zm0-20.082V287.993a5.48,5.48,0,0,1,1.795-.28c3.421,0,4.767,2.58,4.767,5.892,0,3.533-1.682,6.17-5.385,6.17a3.846,3.846,0,0,1-1.177-.113Z"/>
    <path id="Trazado_753" data-name="Trazado 753" d="M165.7,316.378c3.309-2.917,5.271-8.357,5.271-15.986,0-7.349-1.682-12.341-4.938-15.258-2.41-2.242-5.72-3.364-10.487-3.364a33.83,33.83,0,0,0-7.46.729v37.133a54.5,54.5,0,0,0,6.059.394C159.415,320.024,163.173,318.846,165.7,316.378Zm-10.266-28.552a4.177,4.177,0,0,1,1.459-.168c4.43,0,6.45,4.713,6.45,12.453,0,10.432-3.084,13.911-6.618,13.911a4.819,4.819,0,0,1-1.291-.112Z"/>
    <path id="Trazado_754" data-name="Trazado 754" d="M182.972,319.745v-15.6H191.5v-6.114h-8.527v-9.7h9.087v-6.4H175.624v37.807Z"/>
  </g>
</svg>
